<svg clip-rule="evenodd" fill-rule="evenodd" stroke-linejoin="round" stroke-miterlimit="2" viewBox="0 0 512 512" xmlns="http://www.w3.org/2000/svg"><g fill-rule="nonzero"><path d="m348.708 140.086-25.184-51.845c-14.53-29.879-44.983-48.922-78.21-48.922-33.754 0-64.585 19.65-78.835 50.236l-34.722 74.533c-25.906-15.186-57.903-15.908-84.466-1.921-41.535 21.687-56.096 73.072-38.744 112.965 9.916 22.951 24.38 44.26 42.11 63.157l-9.128 19.634c-11.951 25.594-10.671 55.473 3.398 79.967a85.722 85.722 0 0 0 31.636 31.85 86.895 86.895 0 0 0 53.716 11.294l.263-.032.23-.033c30.224-3.858 56.376-23.148 68.984-50.877l4.564-9.817a249.136 249.136 0 0 0 40.32 3.169h.378a253.266 253.266 0 0 0 45.738-4.729l5.713 11.755.033.05c14.676 30.026 45.376 49.086 78.801 48.906h.197c40.402-.427 75.453-28.894 84.137-68.36l.066-.33.066-.311a88.03 88.03 0 0 0 -7.536-56.918l-10.26-21.227c33.589-36.676 58.23-82.495 67.9-133.24 4.384-22.705-.542-46.247-13.626-65.324-16.335-23.92-43.587-38.186-72.547-37.972h-.18c-31.045.377-59.61 17.303-74.829 44.359zm-95.482 108.714-1.97-4.038zm-14.168.591 2.282-4.859-2.282 4.86zm-124.588-48.2c-14.217-10.03-32.95-11.229-48.315-3.086 15.366-8.127 34.098-6.945 48.315 3.086zm-32.292 165.565-3.858 8.307zm309.591-216.869a46.445 46.445 0 0 1 32.243-13.56c15.482-.115 30.027 7.519 38.744 20.307a45.885 45.885 0 0 1 7.98 29.223l-78.967-35.986z" fill="#fff"/><path d="m141.377 239.737-20.308 43.67-21.21 45.573a244.52 244.52 0 0 0 25.134 18.256 241.365 241.365 0 0 0 56.507 26.054l20.489-43.998 19.24-41.37c-30.978-6.486-61.99-25.168-79.852-48.201z" fill="#210784"/><path d="m392.656 323.792-42.947-88.454a156.386 156.386 0 0 1 -32.768 30.272 139.997 139.997 0 0 1 -45.426 20.9l41.042 84.317a237.566 237.566 0 0 0 56.639-28.795 246.52 246.52 0 0 0 23.46-18.24z" fill="#26069c"/><path d="m124.927 347.187a236.51 236.51 0 0 1 -25.15-18.256l-21.457 46.132a46.278 46.278 0 0 0 1.838 42.684c3.99 7.026 9.785 12.87 16.795 16.877 8.652 5.072 18.715 7.223 28.697 6.057 16.318-2.085 30.453-12.526 37.217-27.53l18.551-39.894a240.336 240.336 0 0 1 -56.49-26.07z" fill="#2404aa"/><path d="m462.756 156.634c-8.717-12.788-23.262-20.422-38.744-20.307-22.015.262-40.976 16.154-45.08 37.792a139.762 139.762 0 0 1 -29.157 61.219l42.947 88.454c38.875-34.18 67.424-80.64 77.29-132.386a46 46 0 0 0 -7.256-34.772z" fill="#f99"/><path d="m415.837 371.467-23.099-47.74-42.947-88.455-62.779-129.284c-7.732-15.94-23.968-26.103-41.699-26.103-18.01 0-34.443 10.474-42.044 26.809l-61.941 132.978c17.845 23.033 48.94 41.814 79.836 48.15l20.16-43.307a5.43 5.43 0 0 1 4.909-3.136 5.422 5.422 0 0 1 4.86 3.054l20.52 42.076 41.043 84.318 20.308 41.88c7.847 16.04 24.248 26.218 42.11 26.136 21.571-.23 40.287-15.432 44.916-36.495a47.484 47.484 0 0 0 -4.153-30.88z" fill="#ff5060"/><path d="m271.564 286.493a118.23 118.23 0 0 1 -27.876 3.628 107.97 107.97 0 0 1 -22.491-2.331c-30.897-6.42-61.925-25.118-79.754-48.135a81.708 81.708 0 0 1 -10.589-17.566c-6.944-17.665-24.084-29.354-43.062-29.354a46.205 46.205 0 0 0 -21.637 5.369c-21.228 11.032-29.945 38.908-20.358 60.874 11.082 25.676 29.83 49.81 54.11 69.986a234.232 234.232 0 0 0 25.152 18.255 240.336 240.336 0 0 0 56.49 26.07 208.515 208.515 0 0 0 62.976 9.555 212.428 212.428 0 0 0 68-12.033l-40.96-84.318z" fill="#0034fe"/></g></svg>