<svg viewBox="0 0 436.49 511.97" xmlns="http://www.w3.org/2000/svg" xmlns:xlink="http://www.w3.org/1999/xlink"><linearGradient id="a" gradientTransform="matrix(2.05 0 0 -2.05 38.49 992.77)" gradientUnits="userSpaceOnUse" x1="-18.79" x2="194.32" y1="359.73" y2="359.73"><stop offset="0" stop-color="#f1562b"/><stop offset=".3" stop-color="#f1542b"/><stop offset=".41" stop-color="#f04d2a"/><stop offset=".49" stop-color="#ef4229"/><stop offset=".5" stop-color="#ef4029"/><stop offset=".56" stop-color="#e83e28"/><stop offset=".67" stop-color="#e13c26"/><stop offset="1" stop-color="#df3c26"/></linearGradient><path d="m436.49 165.63-15.79-42.88 11-24.6a8.47 8.47 0 0 0 -1.7-9.37l-29.89-30.18a48.16 48.16 0 0 0 -50.23-11.66l-8.19 2.89-45.6-49.4-77.84-.43-77.85.61-45.55 49.8-8.11-2.87a48.33 48.33 0 0 0 -50.55 11.76l-30.57 30.75a6.73 6.73 0 0 0 -1.36 7.47l11.47 25.56-15.73 42.84 56.47 214.72a89.7 89.7 0 0 0 34.7 50.23l111.68 75.69a24.73 24.73 0 0 0 30.89 0l111.62-75.8a88.86 88.86 0 0 0 34.64-50.23l46.07-176.14z" fill="url(#a)"/><path d="m231 317.33a65.61 65.61 0 0 0 -9.11-3.3h-5.49a66.08 66.08 0 0 0 -9.11 3.3l-13.81 5.74-15.6 7.18-25.4 13.24a4.84 4.84 0 0 0 -.62 9l22.06 15.49q7 5 13.55 10.76l6.21 5.35 13 11.37 5.89 5.2a10.15 10.15 0 0 0 12.95 0l25.39-22.18 13.6-10.77 22.06-15.79a4.8 4.8 0 0 0 -.68-8.93l-25.36-12.8-15.69-7.19zm156.4-142.13.8-2.3a61.26 61.26 0 0 0 -.57-9.18 73.51 73.51 0 0 0 -8.19-15.44l-14.35-21.06-10.22-13.88-19.23-24a69.65 69.65 0 0 0 -5.7-6.67h-.4l-8.54 1.58-42.27 8.14a33.49 33.49 0 0 1 -12.59-1.84l-23.21-7.5-16.61-4.59a70.52 70.52 0 0 0 -14.67 0l-16.65 4.64-23.21 7.54a33.89 33.89 0 0 1 -12.59 1.84l-42.22-8-8.54-1.58h-.4a65.79 65.79 0 0 0 -5.7 6.67l-19.2 24q-5.33 6.75-10.14 13.88l-14.39 21.06-6.78 11.31a51 51 0 0 0 -1.94 13.35l.8 2.3a34.51 34.51 0 0 0 1.31 4.34l11.33 13 50.23 53.39a14.31 14.31 0 0 1 2.55 14.34l-8.43 19.46a25.23 25.23 0 0 0 -.39 16l1.64 4.52a43.58 43.58 0 0 0 13.39 18.76l7.89 6.43a15 15 0 0 0 14.35 1.72l28.06-13.43a70.38 70.38 0 0 0 14.38-9.48l22.46-20.27a9 9 0 0 0 3-6.36 9.08 9.08 0 0 0 -2.5-6.56l-50.76-34.15a9.83 9.83 0 0 1 -3.09-12.45l19.66-36.95a19.21 19.21 0 0 0 1-14.67 22.37 22.37 0 0 0 -11.19-10.11l-61.64-23.2c-4.44-1.6-4.2-3.6.51-3.88l36.2-3.59a55.9 55.9 0 0 1 16.9 1.5l31.5 8.8a9.64 9.64 0 0 1 6.74 10.76l-12.37 67.61a34.72 34.72 0 0 0 -.61 11.41c.5 1.61 4.73 3.6 9.36 4.73l19.19 4a46.38 46.38 0 0 0 16.86 0l17.26-4c4.64-1 8.82-3.23 9.35-4.85a34.94 34.94 0 0 0 -.63-11.4l-12.45-67.59a9.66 9.66 0 0 1 6.74-10.76l31.5-8.83a55.87 55.87 0 0 1 16.9-1.5l36.2 3.37c4.74.44 5 2.2.54 3.88l-61.63 23.33a22.08 22.08 0 0 0 -11.16 10.12 19.3 19.3 0 0 0 1 14.67l19.69 36.95a9.84 9.84 0 0 1 -3.08 12.47l-50.66 34.23a9 9 0 0 0 .32 12.78l.15.14 22.49 20.27a71.46 71.46 0 0 0 14.35 9.47l28.06 13.35a14.89 14.89 0 0 0 14.34-1.76l7.9-6.45a43.53 43.53 0 0 0 13.38-18.8l1.65-4.52a25.27 25.27 0 0 0 -.39-16l-8.26-19.49a14.4 14.4 0 0 1 2.55-14.35l50.23-53.45 11.3-13a35.8 35.8 0 0 0 1.54-4.24z" fill="#fff"/></svg>