<?xml version="1.0" encoding="UTF-8"?>
<svg xmlns="http://www.w3.org/2000/svg" viewBox="0 0 222.64 218.79">
  <path fill="#1ebbee" d="m218.64,114.33c0-16.97-4.39-32.91-12.08-46.76C239.35-6.64,171.42,4.23,167.64,4.97c-14.39,2.82-27.7,7.34-39.99,13.07-1.81-.1-3.63-.16-5.47-.16-45.83,0-84.2,31.97-94.02,74.82,24.16-27.1,41.06-38.04,51.19-42.41-1.62,1.44-3.2,2.9-4.75,4.38-.52.49-1.02.98-1.53,1.48-1.03.99-2.05,1.98-3.05,2.97-.6.59-1.17,1.19-1.76,1.79-.89.9-1.77,1.8-2.64,2.71-.61.64-1.21,1.29-1.82,1.94-.81.87-1.61,1.73-2.4,2.6-.61.68-1.22,1.35-1.82,2.03-.75.84-1.49,1.68-2.22,2.53-.61.7-1.21,1.4-1.8,2.1-.69.82-1.38,1.64-2.05,2.45-.6.72-1.2,1.45-1.78,2.17-.63.78-1.25,1.56-1.87,2.34-.6.76-1.2,1.51-1.79,2.27-.56.72-1.1,1.43-1.65,2.15-.62.81-1.24,1.62-1.84,2.43-.43.58-.84,1.15-1.26,1.72-3.81,5.2-7.29,10.3-10.44,15.2,0,.01-.02.02-.02.04-.83,1.29-1.63,2.56-2.41,3.82-.04.07-.09.14-.13.21-.78,1.27-1.54,2.51-2.28,3.74-.03.04-.05.09-.08.13-1.98,3.31-3.82,6.5-5.48,9.51-8.69,15.74-12.92,26.74-13.1,27.39-27.43,98.07,58.18,56.66,70.13,50.48,12.86,6.36,27.35,9.93,42.67,9.93,41.94,0,77.62-26.77,90.9-64.16h-50.68c-7.5,12.67-21.94,21.25-38.52,21.25-24.3,0-44-18.41-44-41.12h137.96c.52-4.07.79-8.21.79-12.42h0Zm-18.02-94.92c8.31,5.61,14.97,14.41,3.53,44.06-10.97-17.65-27.48-31.49-47.1-39.1,8.93-4.31,31.03-13.43,43.58-4.96ZM24.1,200.65c-6.77-6.94-7.96-23.84,6.97-54.63,7.53,21.66,22.57,39.81,42,51.33-9.66,5.32-35.32,17.3-48.97,3.3h0Zm55.57-100.28c.77-22.08,19.98-39.75,43.59-39.75s42.82,17.67,43.59,39.75h-87.18Z"/>
</svg>