<svg height="16" viewBox="0 0 512 512" width="16" xmlns="http://www.w3.org/2000/svg">
  <style>
    :root {
      color-scheme: dark light;
    }
  </style>
  <path fill="CanvasText" opacity="0.4" d="m256 0c-141.38 0-256 114.62-256 256s114.62 256 256 256 256-114.62 256-256-114.62-256-256-256zm-83.789 41.609c-24.934 27.119-44.68 66.125-56.755 111.992h-65.707c25.43-50.86 69.12-91.077 122.462-111.992zm-146.611 214.391c0-26.999 5.077-52.727 13.662-76.8h70.494c-4.608 24.294-7.356 49.963-7.356 76.8s2.748 52.506 7.347 76.8h-70.485c-8.585-24.073-13.662-49.8-13.662-76.8zm24.149 102.4h65.707c12.083 45.867 31.821 84.872 56.755 111.991-53.342-20.915-97.032-61.132-122.462-111.991zm193.451 126.788c-43.81-8.252-81.877-58.24-101.359-126.788h101.359zm0-152.388h-107.46c-4.924-24.166-7.74-49.997-7.74-76.8s2.816-52.634 7.74-76.8h107.46zm0-179.2h-101.359c19.482-68.548 57.549-118.537 101.359-126.788zm219.051 0h-65.707c-12.083-45.867-31.821-84.873-56.755-111.992 53.342 20.916 97.032 61.133 122.462 111.992zm-193.451-126.788c43.81 8.252 81.877 58.24 101.359 126.788h-101.359zm0 152.388h107.46c4.924 24.166 7.74 49.997 7.74 76.8s-2.816 52.634-7.74 76.8h-107.46zm0 305.988v-126.788h101.359c-19.482 68.548-57.549 118.537-101.359 126.788zm70.989-14.797c24.934-27.127 44.672-66.125 56.755-111.991h65.707c-25.43 50.859-69.12 91.076-122.462 111.991zm62.455-137.591c4.608-24.294 7.356-49.963 7.356-76.8s-2.748-52.506-7.347-76.8h70.494c8.576 24.073 13.653 49.801 13.653 76.8 0 27-5.077 52.727-13.662 76.8z"/>
</svg>